<svg viewBox="0 0 400 300" xmlns="http://www.w3.org/2000/svg">
  <!-- Arrière-plan -->
  <rect width="400" height="300" fill="#1a1a2e"/>
  
  <!-- Étoiles scintillantes -->
  <circle cx="50" cy="40" r="1" fill="#fff">
    <animate attributeName="opacity" values="0.3;1;0.3" dur="2s" repeatCount="indefinite"/>
  </circle>
  <circle cx="150" cy="30" r="1" fill="#fff">
    <animate attributeName="opacity" values="1;0.3;1" dur="1.5s" repeatCount="indefinite"/>
  </circle>
  <circle cx="320" cy="50" r="1" fill="#fff">
    <animate attributeName="opacity" values="0.5;1;0.5" dur="3s" repeatCount="indefinite"/>
  </circle>
  
  <!-- Écran d'ordinateur -->
  <rect x="80" y="120" width="240" height="140" rx="8" fill="#2d3748" stroke="#4a5568" stroke-width="3"/>
  <rect x="90" y="130" width="220" height="120" fill="#1a202c"/>
  
  <!-- Code sur l'écran -->
  <text x="100" y="150" font-family="monospace" font-size="8" fill="#68d391">const developer = {</text>
  <text x="110" y="165" font-family="monospace" font-size="8" fill="#90cdf4">  mood: 'happy',</text>
  <text x="110" y="180" font-family="monospace" font-size="8" fill="#fbb6ce">  coffee: 'endless',</text>
  <text x="110" y="195" font-family="monospace" font-size="8" fill="#faf089">  bugs: 0</text>
  <text x="100" y="210" font-family="monospace" font-size="8" fill="#68d391">};</text>
  
  <!-- Curseur clignotant -->
  <rect x="130" y="205" width="1" height="10" fill="#68d391">
    <animate attributeName="opacity" values="1;0;1" dur="1s" repeatCount="indefinite"/>
  </rect>
  
  <!-- Personnage du développeur -->
  <g transform="translate(200,80)">
    <!-- Tête -->
    <circle cx="0" cy="0" r="25" fill="#fdbcb4"/>
    
    <!-- Cheveux -->
    <path d="M-20,-15 Q0,-35 20,-15 Q15,-25 0,-25 Q-15,-25 -20,-15" fill="#8b4513"/>
    
    <!-- Yeux contents -->
    <path d="M-12,-5 Q-8,-10 -4,-5" stroke="#2d3748" stroke-width="2" fill="none"/>
    <path d="M4,-5 Q8,-10 12,-5" stroke="#2d3748" stroke-width="2" fill="none"/>
    
    <!-- Sourire -->
    <path d="M-10,8 Q0,18 10,8" stroke="#2d3748" stroke-width="2" fill="none">
      <animate attributeName="d" values="M-10,8 Q0,18 10,8;M-12,8 Q0,20 12,8;M-10,8 Q0,18 10,8" dur="3s" repeatCount="indefinite"/>
    </path>
    
    <!-- Corps -->
    <rect x="-20" y="25" width="40" height="50" rx="5" fill="#4299e1"/>
    
    <!-- Bras -->
    <ellipse cx="-25" cy="35" rx="8" ry="15" fill="#fdbcb4">
      <animateTransform attributeName="transform" type="rotate" values="0 -25 35;10 -25 35;0 -25 35" dur="2s" repeatCount="indefinite"/>
    </ellipse>
    <ellipse cx="25" cy="35" rx="8" ry="15" fill="#fdbcb4">
      <animateTransform attributeName="transform" type="rotate" values="0 25 35;-10 25 35;0 25 35" dur="2s" repeatCount="indefinite"/>
    </ellipse>
    
    <!-- Jambes -->
    <rect x="-15" y="75" width="12" height="25" fill="#2d3748"/>
    <rect x="3" y="75" width="12" height="25" fill="#2d3748"/>
  </g>
  
  <!-- Tasse de café avec vapeur -->
  <g transform="translate(320,180)">
    <ellipse cx="0" cy="20" rx="12" ry="8" fill="#8b4513"/>
    <rect x="-10" y="10" width="20" height="15" fill="#d69e2e"/>
    <path d="M10,15 Q20,15 20,25 Q20,35 10,35" stroke="#8b4513" stroke-width="2" fill="none"/>
    
    <!-- Vapeur animée -->
    <path d="M-5,5 Q-3,0 -5,-5" stroke="#e2e8f0" stroke-width="1" fill="none" opacity="0.7">
      <animate attributeName="d" values="M-5,5 Q-3,0 -5,-5;M-5,5 Q-7,0 -5,-5;M-5,5 Q-3,0 -5,-5" dur="2s" repeatCount="indefinite"/>
    </path>
    <path d="M0,5 Q2,0 0,-5" stroke="#e2e8f0" stroke-width="1" fill="none" opacity="0.7">
      <animate attributeName="d" values="M0,5 Q2,0 0,-5;M0,5 Q-2,0 0,-5;M0,5 Q2,0 0,-5" dur="1.5s" repeatCount="indefinite"/>
    </path>
    <path d="M5,5 Q7,0 5,-5" stroke="#e2e8f0" stroke-width="1" fill="none" opacity="0.7">
      <animate attributeName="d" values="M5,5 Q7,0 5,-5;M5,5 Q3,0 5,-5;M5,5 Q7,0 5,-5" dur="2.5s" repeatCount="indefinite"/>
    </path>
  </g>
  
  <!-- Particules de bonheur -->
  <g>
    <circle cx="150" cy="60" r="2" fill="#fbb6ce" opacity="0.8">
      <animate attributeName="cy" values="60;40;60" dur="4s" repeatCount="indefinite"/>
      <animate attributeName="opacity" values="0.8;0.3;0.8" dur="4s" repeatCount="indefinite"/>
    </circle>
    <circle cx="250" cy="70" r="3" fill="#90cdf4" opacity="0.6">
      <animate attributeName="cy" values="70;50;70" dur="3s" repeatCount="indefinite"/>
      <animate attributeName="opacity" values="0.6;0.2;0.6" dur="3s" repeatCount="indefinite"/>
    </circle>
    <circle cx="180" cy="50" r="2" fill="#faf089" opacity="0.7">
      <animate attributeName="cy" values="50;30;50" dur="5s" repeatCount="indefinite"/>
      <animate attributeName="opacity" values="0.7;0.1;0.7" dur="5s" repeatCount="indefinite"/>
    </circle>
  </g>
  
  <!-- Texte animé -->
  <text x="200" y="280" text-anchor="middle" font-family="Arial, sans-serif" font-size="16" font-weight="bold" fill="#68d391">
    Merci de visiter CLIMAGLOBALE
    <animate attributeName="opacity" values="1;0.5;1" dur="2s" repeatCount="indefinite"/>
  </text>
</svg>
